<svg width="17" height="17" viewBox="0 0 17 17" fill="none" xmlns="http://www.w3.org/2000/svg">
<path d="M17 12.0615C17 15.1555 15.1555 17 12.0615 17H11.05C10.5825 17 10.2 16.6175 10.2 16.15V11.2455C10.2 11.016 10.387 10.8205 10.6165 10.8205L12.1125 10.795C12.2315 10.7865 12.3335 10.7015 12.359 10.5825L12.6565 8.95897C12.682 8.80597 12.563 8.66154 12.4015 8.66154L10.591 8.68704C10.353 8.68704 10.166 8.50002 10.1575 8.27052L10.1236 6.18801C10.1236 6.05201 10.234 5.93302 10.3785 5.93302L12.4185 5.89901C12.563 5.89901 12.6736 5.78852 12.6736 5.64402L12.6395 3.604C12.6395 3.4595 12.529 3.34901 12.3845 3.34901L10.0895 3.38302C8.67852 3.40852 7.55651 4.5645 7.58201 5.97551L7.62451 8.313C7.633 8.55097 7.44601 8.73804 7.20801 8.74651L6.188 8.76354C6.0435 8.76354 5.93301 8.87401 5.93301 9.01854L5.95851 10.6335C5.95851 10.778 6.069 10.8885 6.2135 10.8885L7.23351 10.8715C7.47151 10.8715 7.65849 11.0585 7.667 11.288L7.74349 16.133C7.75199 16.609 7.36949 17 6.89349 17H4.9385C1.8445 17 0 15.1555 0 12.053V4.93851C0 1.84451 1.8445 0 4.9385 0H12.0615C15.1555 0 17 1.84451 17 4.93851V12.0615Z" fill="#1888AD"/>
</svg>
