<svg width="20" height="14" viewBox="0 0 20 14" fill="none" xmlns="http://www.w3.org/2000/svg">
<path d="M7.99998 10L13.19 6.99998L7.99998 3.99999V10ZM19.5599 2.17C19.6899 2.64 19.7799 3.26999 19.84 4.06999C19.91 4.86999 19.9399 5.55999 19.9399 6.15999L20 6.99998C20 9.18998 19.84 10.8 19.5599 11.8299C19.3099 12.73 18.7299 13.31 17.83 13.56C17.36 13.69 16.4999 13.78 15.18 13.8399C13.88 13.91 12.6899 13.94 11.59 13.94L9.99997 14C5.80999 14 3.19999 13.8399 2.16999 13.56C1.26999 13.31 0.689998 12.73 0.439995 11.8299C0.309996 11.36 0.220001 10.73 0.160004 9.92997C0.0900011 9.12999 0.0600028 8.43998 0.0600028 7.83999L0 6.99998C0 4.80999 0.160004 3.2 0.439995 2.17C0.689998 1.27 1.26999 0.690003 2.16999 0.44C2.63999 0.310001 3.5 0.219996 4.81999 0.159999C6.11999 0.089996 7.30999 0.0599997 8.40998 0.0599997L9.99997 0C14.19 0 16.7999 0.159999 17.83 0.44C18.7299 0.690003 19.3099 1.27 19.5599 2.17Z" fill="#1888AD"/>
</svg>
