<svg width="17" height="17" viewBox="0 0 17 17" fill="none" xmlns="http://www.w3.org/2000/svg">
<path d="M12.0616 0H4.93855C1.84452 0 0 1.84452 0 4.93855V12.0532C0 15.1556 1.84452 17.0002 4.93855 17.0002H12.0532C15.1471 17.0002 16.9916 15.1556 16.9916 12.0616V4.93855C17.0002 1.84452 15.1556 0 12.0616 0ZM8.50009 11.7981C6.68106 11.7981 5.20205 10.3191 5.20205 8.50009C5.20205 6.68106 6.68106 5.20205 8.50009 5.20205C10.3191 5.20205 11.7981 6.68106 11.7981 8.50009C11.7981 10.3191 10.3191 11.7981 8.50009 11.7981ZM13.5322 4.14804C13.4896 4.25004 13.4302 4.34355 13.3537 4.42855C13.2686 4.50505 13.1752 4.56454 13.0732 4.60705C12.9712 4.64955 12.8606 4.67505 12.7501 4.67505C12.5206 4.67505 12.3082 4.59004 12.1466 4.42855C12.0701 4.34355 12.0106 4.25004 11.9681 4.14804C11.9257 4.04604 11.9002 3.93555 11.9002 3.82504C11.9002 3.71454 11.9257 3.60404 11.9681 3.50204C12.0106 3.39153 12.0701 3.30654 12.1466 3.22154C12.3421 3.02603 12.6397 2.93253 12.9116 2.99204C12.9712 3.00053 13.0222 3.01754 13.0732 3.04304C13.1242 3.06003 13.1752 3.08553 13.2262 3.11954C13.2686 3.14504 13.3111 3.18753 13.3537 3.22154C13.4302 3.30654 13.4896 3.39153 13.5322 3.50204C13.5746 3.60404 13.6001 3.71454 13.6001 3.82504C13.6001 3.93555 13.5746 4.04604 13.5322 4.14804Z" fill="#1888AD"/>
</svg>
