<svg width="42" height="42" viewBox="0 0 42 42" fill="none" xmlns="http://www.w3.org/2000/svg">
<path d="M35.2631 10.8986C35.2626 10.8874 35.2614 10.8761 35.2595 10.8649C35.2157 10.8024 35.162 10.7486 35.1168 10.6873C34.7901 10.2422 34.4441 9.81374 34.0791 9.40191C33.979 9.28937 33.8791 9.17808 33.7765 9.06805C33.4006 8.66546 33.0063 8.28154 32.5937 7.91646C32.5174 7.84891 32.4462 7.77894 32.3699 7.71264C31.3529 6.84145 30.2394 6.0896 29.0513 5.47199C29.0037 5.447 28.9537 5.42575 28.905 5.40069C28.3758 5.13181 27.8333 4.89011 27.2795 4.67668C27.1543 4.63171 27.0406 4.58913 26.9218 4.55163C26.4291 4.37411 25.929 4.21864 25.4213 4.08522C25.2713 4.04521 25.1212 4.00397 24.9688 3.96895C24.4686 3.85268 23.9685 3.76388 23.4569 3.69135C23.3019 3.66886 23.1495 3.63881 22.993 3.62007C21.6758 3.45998 20.344 3.45998 19.0268 3.62007C18.8705 3.63881 18.7179 3.66886 18.5629 3.69135C18.0515 3.76388 17.5463 3.85268 17.0511 3.96895C16.8986 4.00397 16.7486 4.04521 16.5985 4.08522C16.0875 4.21857 15.5874 4.37404 15.098 4.55163C14.973 4.59412 14.8592 4.6367 14.7404 4.67668C14.1866 4.89011 13.644 5.13174 13.1149 5.40069C13.0661 5.42568 13.0161 5.44693 12.9686 5.47199C11.7765 6.08895 10.6593 6.84071 9.63878 7.71264C9.56252 7.77887 9.49122 7.84891 9.41496 7.91646C8.99816 8.28322 8.60385 8.66714 8.2321 9.06805C8.1296 9.17808 8.02952 9.28937 7.92951 9.40191C7.56356 9.81286 7.21761 10.2413 6.89172 10.6873C6.84673 10.7485 6.79295 10.8023 6.74915 10.8648C6.74343 10.8757 6.73837 10.887 6.73412 10.8986C2.42131 16.9427 2.42131 25.0583 6.73412 31.1024C6.73837 31.114 6.74336 31.1252 6.74915 31.1362C6.79288 31.1987 6.84666 31.2524 6.89172 31.3136C7.21768 31.7588 7.56356 32.1872 7.92951 32.599C8.02952 32.7115 8.1296 32.8228 8.2321 32.9329C8.60889 33.3356 9.00313 33.7194 9.41496 34.0846C9.49122 34.1521 9.56252 34.222 9.63878 34.2883C10.6557 35.1596 11.7692 35.9114 12.9573 36.529C13.0049 36.554 13.0548 36.5752 13.1036 36.6002C13.6328 36.8692 14.1753 37.1109 14.7292 37.3244C14.8542 37.3693 14.968 37.4118 15.0868 37.4493C15.5794 37.6269 16.0796 37.7823 16.5872 37.9157C16.7373 37.9558 16.8873 37.9971 17.0399 38.0321C17.54 38.1483 18.0402 38.2372 18.5517 38.3096C18.7066 38.3322 18.8592 38.3621 19.0154 38.3808C20.3328 38.541 21.6644 38.541 22.9818 38.3808C23.1381 38.3621 23.2907 38.3322 23.4457 38.3096C23.9571 38.2372 24.4623 38.1483 24.9574 38.0321C25.11 37.9971 25.26 37.9558 25.4101 37.9157C25.922 37.7823 26.4221 37.6269 26.9106 37.4493C27.0357 37.4068 27.1494 37.3643 27.2681 37.3244C27.822 37.1109 28.3646 36.8692 28.8937 36.6002C28.9425 36.5754 28.9924 36.554 29.04 36.529C30.2282 35.9112 31.3416 35.1596 32.3585 34.2883C32.4348 34.222 32.506 34.1521 32.5823 34.0846C32.9992 33.7185 33.3934 33.3347 33.7651 32.9329C33.8677 32.8228 33.9678 32.7115 34.0679 32.599C34.4338 32.1872 34.7798 31.7588 35.1056 31.3136C35.1506 31.2524 35.2043 31.1987 35.2481 31.1362C35.2539 31.1252 35.2589 31.114 35.2631 31.1024C39.576 25.0583 39.576 16.9428 35.2631 10.8986ZM33.8365 13.2644C35.0323 15.2339 35.7544 17.4541 35.9458 19.7502H28.456C28.3643 18.2604 28.13 16.7827 27.7558 15.3376C29.8716 14.9414 31.9194 14.2432 33.8365 13.2644ZM24.186 6.34097C24.256 6.35724 24.3235 6.37973 24.3935 6.39601C24.8412 6.50106 25.2852 6.62107 25.719 6.77112C25.7853 6.79361 25.8502 6.81991 25.9153 6.84366C26.3455 6.9937 26.7693 7.16 27.1844 7.34382C27.2571 7.3776 27.3283 7.41512 27.4009 7.44889C27.7985 7.63814 28.1868 7.84276 28.5662 8.06285L28.8163 8.21413C29.1763 8.43423 29.5265 8.66971 29.8665 8.92064C29.9542 8.98438 30.0417 9.0457 30.1279 9.11566C30.4613 9.36572 30.7807 9.63372 31.0857 9.91968C31.1657 9.9922 31.2483 10.0635 31.327 10.1385C31.6471 10.4424 31.9521 10.7637 32.2474 11.0963C32.2848 11.14 32.3249 11.1801 32.3623 11.2214C30.6692 12.0282 28.8756 12.6044 27.0294 12.9344C26.1742 10.5832 25.0444 8.34111 23.6634 6.25482C23.837 6.28604 24.0147 6.30354 24.186 6.34097ZM16.0484 19.7502C16.1471 18.3972 16.3774 17.0571 16.7362 15.7489C18.1529 15.9172 19.5784 16.0007 21.005 15.999C22.433 15.9985 23.8598 15.913 25.2776 15.7426C25.6357 17.053 25.8648 18.3951 25.9615 19.7502H16.0484ZM25.9615 22.2509C25.863 23.6038 25.6325 24.944 25.2738 26.2521C23.8572 26.0839 22.4316 26.0005 21.005 26.0022C19.577 26.0005 18.1504 26.0839 16.7324 26.2521C16.3746 24.944 16.1456 23.6038 16.0484 22.2509H25.9615ZM21.005 6.81119C22.4279 8.82796 23.5982 11.0116 24.4898 13.3132C23.3323 13.4362 22.1691 13.4979 21.005 13.4983C19.8421 13.4969 18.6801 13.4348 17.5239 13.312C18.4166 11.0119 19.5854 8.82898 21.005 6.81119ZM9.764 11.095C10.0579 10.7624 10.3642 10.441 10.6843 10.1372C10.763 10.0622 10.8456 9.99089 10.9256 9.91835C11.234 9.63746 11.5533 9.36945 11.8834 9.11435C11.9697 9.04804 12.0572 8.98928 12.1447 8.91931C12.4848 8.66925 12.835 8.43372 13.1951 8.21282L13.4451 8.06153C13.8244 7.83983 14.2129 7.63513 14.6105 7.44756C14.683 7.41379 14.7543 7.37629 14.8268 7.34251C15.2419 7.15495 15.6659 6.98864 16.096 6.84233C16.161 6.8186 16.2211 6.79229 16.2923 6.76979C16.7261 6.62473 17.1676 6.50472 17.6177 6.39468C17.6877 6.37842 17.7553 6.35593 17.8265 6.3409C17.9978 6.3034 18.1754 6.28588 18.3492 6.25461C16.9677 8.34125 15.8375 10.5838 14.9818 12.9354C13.1357 12.6054 11.342 12.0293 9.64897 11.2224C9.68649 11.1787 9.72648 11.1387 9.764 11.095ZM8.17349 13.2644C10.0902 14.2431 12.1376 14.9413 14.2529 15.3376C13.8793 16.7828 13.6452 18.2604 13.5539 19.7502H6.06411C6.25563 17.4541 6.97773 15.2339 8.17349 13.2644ZM8.17349 28.7368C6.97766 26.7673 6.25556 24.5471 6.06411 22.2509H13.5539C13.6456 23.7409 13.8801 25.2186 14.2541 26.6635C12.1384 27.0597 10.0906 27.758 8.17349 28.7368ZM17.824 35.6601C17.754 35.6438 17.6865 35.6214 17.6165 35.6052C17.1688 35.5 16.7249 35.3801 16.291 35.2299C16.2247 35.2076 16.1597 35.1811 16.0947 35.1575C15.6645 35.0074 15.2407 34.8411 14.8255 34.6574C14.753 34.6236 14.6817 34.586 14.6091 34.5522C14.2115 34.363 13.8231 34.1584 13.4438 33.9383L13.1938 33.7869C12.8337 33.5669 12.4835 33.3314 12.1434 33.0804C12.0559 33.0167 11.9684 32.9555 11.8821 32.8855C11.5487 32.6354 11.2294 32.3675 10.9243 32.0814C10.8443 32.0089 10.7617 31.9377 10.683 31.8626C10.3629 31.5588 10.0578 31.2375 9.76268 30.9048C9.72516 30.8611 9.68516 30.821 9.64766 30.7797C11.3407 29.973 13.1343 29.3967 14.9805 29.0668C15.8358 31.4179 16.9656 33.66 18.3466 35.7464C18.1728 35.7152 17.9954 35.6977 17.824 35.6601ZM21.005 35.1901C19.5821 33.1732 18.4117 30.9895 17.5201 28.6879C19.8358 28.4387 22.1716 28.4387 24.4872 28.6879C23.5947 30.988 22.4246 33.1721 21.005 35.1901ZM32.246 30.9061C31.9521 31.2387 31.6459 31.56 31.3256 31.864C31.2469 31.9389 31.1645 32.0103 31.0843 32.0828C30.776 32.3645 30.4566 32.6326 30.1265 32.8867C30.0403 32.953 29.9528 33.0181 29.8653 33.0818C29.5252 33.3319 29.1751 33.5675 28.8149 33.7883L28.5648 33.9395C28.1863 34.1605 27.798 34.3651 27.3995 34.5536C27.3271 34.5874 27.2557 34.6248 27.1832 34.6586C26.7681 34.8462 26.3441 35.0124 25.9139 35.1587C25.849 35.1825 25.789 35.2088 25.7178 35.2314C25.2838 35.3764 24.8424 35.4963 24.3923 35.6064C24.3223 35.6227 24.2548 35.6452 24.1835 35.6603C24.0122 35.6977 23.8346 35.7152 23.6608 35.7466C25.0417 33.6602 26.1715 31.4181 27.0268 29.067C28.873 29.3969 30.6668 29.9731 32.3597 30.7799C32.3235 30.8224 32.2836 30.8623 32.246 30.9061ZM33.8365 28.7368C31.9198 27.7582 29.8724 27.0599 27.757 26.6635C28.1307 25.2184 28.3648 23.7409 28.456 22.2509H35.9458C35.7544 24.5471 35.0323 26.7673 33.8365 28.7368Z" fill="black"/>
</svg>
