<svg width="79" height="42" viewBox="0 0 79 42" fill="none" xmlns="http://www.w3.org/2000/svg">
<g clip-path="url(#clip0_1_347)">
<path fill-rule="evenodd" clip-rule="evenodd" d="M40 5.25C37.1005 5.25 34.75 7.60051 34.75 10.5C34.75 13.3995 37.1005 15.75 40 15.75C42.8995 15.75 45.25 13.3995 45.25 10.5C45.25 7.60051 42.8995 5.25 40 5.25ZM31.25 10.5C31.25 5.66751 35.1675 1.75 40 1.75C44.8325 1.75 48.75 5.66751 48.75 10.5C48.75 15.3325 44.8325 19.25 40 19.25C35.1675 19.25 31.25 15.3325 31.25 10.5ZM29.1123 24.7625C32.6043 23.1971 36.822 22.75 40 22.75C43.178 22.75 47.3957 23.1971 50.8877 24.7625C54.4427 26.3561 57.5 29.2635 57.5 34.125V35.875C57.5 38.2455 55.5834 40.25 53.157 40.25H26.843C24.4166 40.25 22.5 38.2455 22.5 35.875V34.125C22.5 29.2635 25.5573 26.3561 29.1123 24.7625ZM30.544 27.9563C27.7552 29.2064 26 31.1115 26 34.125V35.875C26 36.3686 26.4052 36.75 26.843 36.75H53.157C53.5948 36.75 54 36.3686 54 35.875V34.125C54 31.1115 52.2448 29.2064 49.456 27.9563C46.6043 26.6779 42.947 26.25 40 26.25C37.053 26.25 33.3957 26.6779 30.544 27.9563Z" fill="black"/>
</g>
<defs>
<clipPath id="clip0_1_347">
<rect width="79" height="42" fill="white"/>
</clipPath>
</defs>
</svg>
