<svg width="17" height="15" viewBox="0 0 17 15" fill="none" xmlns="http://www.w3.org/2000/svg">
<path d="M16.6926 2.94244L14.3568 5.27831C13.8849 10.7484 9.27175 14.9999 3.75083 14.9999C2.6165 14.9999 1.68137 14.8202 0.971231 14.4655C0.398598 14.1788 0.16423 13.8717 0.105638 13.7842C0.0533939 13.7059 0.01953 13.6167 0.00657945 13.5235C-0.00637213 13.4303 0.0019226 13.3353 0.0308447 13.2457C0.0597667 13.156 0.108568 13.0741 0.173602 13.006C0.238636 12.9379 0.31822 12.8853 0.40641 12.8523C0.426722 12.8445 2.3001 12.125 3.4899 10.7554C2.83007 10.213 2.25407 9.5759 1.78058 8.86491C0.811866 7.42668 -0.272474 4.92832 0.0618897 1.19485C0.0724883 1.07621 0.116765 0.963077 0.189506 0.868768C0.262245 0.774455 0.36042 0.702893 0.472469 0.662506C0.584514 0.622119 0.70577 0.614591 0.821956 0.640808C0.938142 0.667024 1.04442 0.725894 1.12827 0.810484C1.15561 0.837826 3.72818 3.39634 6.87339 4.226V3.75024C6.87219 3.25133 6.97083 2.75725 7.16349 2.29705C7.35615 1.83686 7.63895 1.41987 7.99522 1.07063C8.34123 0.725117 8.75293 0.452403 9.20604 0.268583C9.65912 0.0847628 10.1445 -0.00644122 10.6334 0.000353563C11.2893 0.00682335 11.9323 0.18289 12.5 0.511435C13.0677 0.83998 13.5408 1.30983 13.8732 1.8753H16.2504C16.3741 1.8752 16.495 1.9118 16.5979 1.98046C16.7008 2.04913 16.781 2.14678 16.8283 2.26104C16.8757 2.3753 16.888 2.50104 16.8639 2.62233C16.8397 2.74363 16.7801 2.85504 16.6926 2.94244Z" fill="#1888AD"/>
</svg>
