<svg width="15" height="15" viewBox="0 0 15 15" fill="none" xmlns="http://www.w3.org/2000/svg">
<path d="M7.49999 0C6.01663 0 4.56659 0.43987 3.33322 1.26397C2.09986 2.08808 1.13857 3.25942 0.570902 4.62986C0.00324949 6.00031 -0.145275 7.5083 0.144114 8.96316C0.433499 10.418 1.14781 11.7544 2.1967 12.8033C3.24559 13.8522 4.58196 14.5665 6.03682 14.8559C7.49167 15.1452 8.99967 14.9967 10.3701 14.4291C11.7406 13.8614 12.9119 12.9001 13.736 11.6667C14.5601 10.4334 15 8.98334 15 7.49999C14.9976 5.51159 14.2067 3.6053 12.8007 2.19928C11.3947 0.793273 9.48839 0.00234613 7.49999 0ZM10.0275 10.0275C9.89967 10.1554 9.72622 10.2271 9.54544 10.2271C9.36464 10.2271 9.19126 10.1554 9.0634 10.0275L7.01795 7.98203C6.89007 7.8542 6.81821 7.6808 6.81817 7.49999V3.40909C6.81817 3.22826 6.89 3.05484 7.01788 2.92696C7.14574 2.7991 7.31916 2.72727 7.49999 2.72727C7.68082 2.72727 7.85424 2.7991 7.9821 2.92696C8.10997 3.05484 8.18181 3.22826 8.18181 3.40909V7.21772L10.0275 9.06339C10.1554 9.19125 10.2271 9.36464 10.2271 9.54544C10.2271 9.72622 10.1554 9.89967 10.0275 10.0275Z" fill="#575756"/>
</svg>
