<svg width="12" height="16" viewBox="0 0 12 16" fill="none" xmlns="http://www.w3.org/2000/svg">
<path d="M5.79459 0C2.59943 0 0 2.59944 0 5.7946C0 9.7598 5.18559 15.581 5.40637 15.8269C5.61375 16.0579 5.97581 16.0575 6.18281 15.8269C6.40359 15.581 11.5892 9.7598 11.5892 5.7946C11.5891 2.59944 8.98973 0 5.79459 0ZM5.79459 8.71C4.18703 8.71 2.87921 7.4021 2.87921 5.7946C2.87921 4.187 4.18706 2.87919 5.79459 2.87919C7.40212 2.87919 8.70993 4.18703 8.70993 5.7946C8.70993 7.4022 7.40212 8.71 5.79459 8.71Z" fill="#575756"/>
</svg>
